<?xml version="1.0" encoding="UTF-8"?>
<svg xmlns="http://www.w3.org/2000/svg" xmlns:xlink="http://www.w3.org/1999/xlink" width="799.14pt" height="287.61pt" viewBox="0 0 799.14 287.61" version="1.1">
<defs>
<clipPath id="clip1">
  <path d="M 0 0 L 799.140625 0 L 799.140625 287.609375 L 0 287.609375 Z M 0 0 "/>
</clipPath>
</defs>
<g id="surface1">
<g clip-path="url(#clip1)" clip-rule="nonzero">
<path style=" stroke:none;fill-rule:evenodd;fill:rgb(13.719177%,12.156677%,12.547302%);fill-opacity:1;" d="M 102.367188 12.75 C 50.367188 73.820313 0.503906 149.554688 0.00390625 206.160156 C -0.1875 227.457031 6.609375 246.050781 22.917969 260.144531 C 46.394531 280.414063 72.25 287.566406 97.988281 287.609375 C 135.59375 287.660156 172.9375 272.488281 202.179688 260.792969 C 251.425781 241.097656 795.777344 4.707031 795.777344 4.707031 C 801.027344 2.078125 800.042969 -1.203125 793.472656 0.4375 C 790.820313 1.101563 200.863281 160.980469 200.863281 160.980469 C 189.476563 164.179688 177.84375 165.835938 166.523438 165.894531 C 121.183594 166.164063 80.839844 140.996094 81.164063 87.964844 C 81.296875 67.210938 87.652344 42.191406 102.367188 12.75 "/>
</g>
</g>
</svg>
